<?xml version="1.0" encoding="UTF-8" standalone="no"?>
<svg
   xmlns:dc="http://purl.org/dc/elements/1.1/"
   xmlns:cc="http://creativecommons.org/ns#"
   xmlns:rdf="http://www.w3.org/1999/02/22-rdf-syntax-ns#"
   xmlns:svg="http://www.w3.org/2000/svg"
   xmlns="http://www.w3.org/2000/svg"
   viewBox="0 0 793.70667 1122.52"
   height="1122.52"
   width="793.70667"
   xml:space="preserve"
   id="svg2"
   version="1.1"><metadata
     id="metadata8"><rdf:RDF><cc:Work
         rdf:about=""><dc:format>image/svg+xml</dc:format><dc:type
           rdf:resource="http://purl.org/dc/dcmitype/StillImage" /></cc:Work></rdf:RDF></metadata><defs
     id="defs6"><clipPath
       id="clipPath20"
       clipPathUnits="userSpaceOnUse"><path
         id="path18"
         d="M 0,841.89 H 595.28 V 0 H 0 Z" /></clipPath><clipPath
       id="clipPath32"
       clipPathUnits="userSpaceOnUse"><path
         id="path30"
         d="M 0,841.89 H 595.28 V 0 H 0 Z" /></clipPath></defs><g
     transform="matrix(1.3333333,0,0,-1.3333333,0,1122.52)"
     id="g10"><path
       id="path12"
       style="fill:#000000;fill-opacity:1;fill-rule:nonzero;stroke:none"
       d="M 0,127 H 595.281 V 709 H 0 Z" /><g
       id="g14"><g
         clip-path="url(#clipPath20)"
         id="g16"><path
           id="path22"
           style="fill:none;stroke:#000000;stroke-width:1;stroke-linecap:butt;stroke-linejoin:miter;stroke-miterlimit:10;stroke-dasharray:none;stroke-opacity:1"
           d="M 0,709 H 595.28 V 127 H 0 Z" /></g></g><path
       id="path24"
       style="fill:#ffffff;fill-opacity:1;fill-rule:nonzero;stroke:#000000;stroke-width:1;stroke-linecap:butt;stroke-linejoin:miter;stroke-miterlimit:10;stroke-dasharray:none;stroke-opacity:1"
       d="m 80.333,679.832 h 435 V 272.67 h -435 z" /><g
       id="g26"><g
         clip-path="url(#clipPath32)"
         id="g28"><g
           transform="translate(97.25,664.5)"
           id="g34"><path
             id="path36"
             style="fill:#1d2c49;fill-opacity:1;fill-rule:nonzero;stroke:none"
             d="m 0,0 h 195 c 0,0 -10.875,-7.875 -13.25,-17.875 -2.375,-10 -1.875,-17.125 -0.125,-21.875 0,0 0,-2.375 -1.375,-4.125 -1.375,-1.75 -1.25,3.625 -7.625,3.25 C 166.25,-41 157.375,-39 145.5,-60.375 c 0,0 -3.875,-9.875 -4.5,-18.375 -0.625,-8.5 -1.375,-20.125 -0.25,-23.125 1.125,-3 -12.125,-2.25 -12.125,-2.25 0,0 -3.375,-0.875 -3.5,-2.25 -0.125,-1.375 0,-8.625 0.125,-12.75 0.125,-4.125 -0.875,-6.5 -1.25,-10.375 -0.375,-3.875 -2.875,-7.375 -2.5,-11.75 0.375,-4.375 7.25,-4.625 11.25,-5 4,-0.375 3.625,-1.25 1.375,-1.875 -2.25,-0.625 -8.875,-0.75 -8.625,-8.75 0.25,-8 2.75,-27 3.375,-32.125 0.625,-5.125 -3.875,-0.5 -3.375,-2 0.5,-1.5 -1.75,0.875 -3.125,-4.875 -1.375,-5.75 0.375,-4.75 1,-5.5 0.625,-0.75 1.375,-0.75 1.375,-0.75 l -1.875,-2.625 -0.625,-3 1,-2.125 1,-0.875 c 0,0 -2.5,-2.75 0.125,-5.75 2.625,-3 1.375,-1.625 1.125,-4.5 -0.25,-2.875 -5.5,-24.25 -4.125,-33.625 1.375,-9.375 -3.25,-12.25 -5.25,-16.375 -2,-4.125 -13.625,-22.25 -13.125,-26.5 0.5,-4.25 -1.125,-8.75 -2.375,-11.125 -1.25,-2.375 -6.75,-8 -6.5,-13.875 0.25,-5.875 0.625,-6.75 3.375,-9.25 0,0 -2.375,-8.125 -3.25,-11.5 -0.875,-3.375 -4.25,-16.625 -4.875,-19 -0.625,-2.375 -1.75,-6.875 -1.375,-9.25 l -0.375,-1 H 0 Z" /></g><g
           transform="translate(97.25,664.5)"
           id="g38"><path
             id="path40"
             style="fill:none;stroke:#1d2c49;stroke-width:1;stroke-linecap:butt;stroke-linejoin:miter;stroke-miterlimit:10;stroke-dasharray:none;stroke-opacity:1"
             d="m 0,0 h 195 c 0,0 -10.875,-7.875 -13.25,-17.875 -2.375,-10 -1.875,-17.125 -0.125,-21.875 0,0 0,-2.375 -1.375,-4.125 -1.375,-1.75 -1.25,3.625 -7.625,3.25 C 166.25,-41 157.375,-39 145.5,-60.375 c 0,0 -3.875,-9.875 -4.5,-18.375 -0.625,-8.5 -1.375,-20.125 -0.25,-23.125 1.125,-3 -12.125,-2.25 -12.125,-2.25 0,0 -3.375,-0.875 -3.5,-2.25 -0.125,-1.375 0,-8.625 0.125,-12.75 0.125,-4.125 -0.875,-6.5 -1.25,-10.375 -0.375,-3.875 -2.875,-7.375 -2.5,-11.75 0.375,-4.375 7.25,-4.625 11.25,-5 4,-0.375 3.625,-1.25 1.375,-1.875 -2.25,-0.625 -8.875,-0.75 -8.625,-8.75 0.25,-8 2.75,-27 3.375,-32.125 0.625,-5.125 -3.875,-0.5 -3.375,-2 0.5,-1.5 -1.75,0.875 -3.125,-4.875 -1.375,-5.75 0.375,-4.75 1,-5.5 0.625,-0.75 1.375,-0.75 1.375,-0.75 l -1.875,-2.625 -0.625,-3 1,-2.125 1,-0.875 c 0,0 -2.5,-2.75 0.125,-5.75 2.625,-3 1.375,-1.625 1.125,-4.5 -0.25,-2.875 -5.5,-24.25 -4.125,-33.625 1.375,-9.375 -3.25,-12.25 -5.25,-16.375 -2,-4.125 -13.625,-22.25 -13.125,-26.5 0.5,-4.25 -1.125,-8.75 -2.375,-11.125 -1.25,-2.375 -6.75,-8 -6.5,-13.875 0.25,-5.875 0.625,-6.75 3.375,-9.25 0,0 -2.375,-8.125 -3.25,-11.5 -0.875,-3.375 -4.25,-16.625 -4.875,-19 -0.625,-2.375 -1.75,-6.875 -1.375,-9.25 l -0.375,-1 H 0 Z" /></g><g
           transform="translate(215.125,292)"
           id="g42"><path
             id="path44"
             style="fill:#1d2c49;fill-opacity:1;fill-rule:nonzero;stroke:none"
             d="m 0,0 h 104.375 c 0,0 0.875,12.375 3.75,18 2.875,5.625 2.25,12.5 2,17 -0.25,4.5 0.375,12.375 -3.25,14.375 l -0.625,5.5 c 0,0 -3.625,8.25 -2.625,10.375 -0.25,2.375 -1,22.5 -1,22.5 0,0 1.125,3.75 3.25,5.25 0.625,1.875 1.125,12.75 -1.125,15 -2,2.25 -3.5,2.125 -8,2.625 -4.5,0.5 -2,-4.625 -17.5,19.375 -2.625,4.5 -5.375,8.75 -6.625,10.375 -1.25,1.625 -3.125,1.625 -6,1.875 -2.875,0.25 -3.25,0.375 -5.75,5 l -2.5,4.625 c 0,0 -0.64,1.25 -3.195,-6.625 C 52.625,137.375 50,145.25 45,125.625 41.875,119 41.625,118.25 41.125,109.375 39.875,104.875 37.25,103.75 34.5,102 c -2.75,-1.75 -3.125,-6.625 -4.125,-7.875 -1,-1.25 -5,-1.25 -7.125,-8.75 -2.125,-7.5 -2.5,-3.125 -0.375,-10.125 0,0 -3.125,-12 -5,-14.75 C 16,57.75 13,50.125 12.125,46.625 11.25,43.125 7.375,38.125 4.5,37.625 1.625,37.125 -1.625,26.625 -2,23.75 -2.375,20.875 -3.5,5.5 -2,3.25 -1.125,1 0,0 0,0" /></g><g
           transform="translate(215.125,292)"
           id="g46"><path
             id="path48"
             style="fill:none;stroke:#1d2c49;stroke-width:1;stroke-linecap:butt;stroke-linejoin:miter;stroke-miterlimit:10;stroke-dasharray:none;stroke-opacity:1"
             d="m 0,0 h 104.375 c 0,0 0.875,12.375 3.75,18 2.875,5.625 2.25,12.5 2,17 -0.25,4.5 0.375,12.375 -3.25,14.375 l -0.625,5.5 c 0,0 -3.625,8.25 -2.625,10.375 -0.25,2.375 -1,22.5 -1,22.5 0,0 1.125,3.75 3.25,5.25 0.625,1.875 1.125,12.75 -1.125,15 -2,2.25 -3.5,2.125 -8,2.625 -4.5,0.5 -2,-4.625 -17.5,19.375 -2.625,4.5 -5.375,8.75 -6.625,10.375 -1.25,1.625 -3.125,1.625 -6,1.875 -2.875,0.25 -3.25,0.375 -5.75,5 l -2.5,4.625 c 0,0 -0.64,1.25 -3.195,-6.625 C 52.625,137.375 50,145.25 45,125.625 41.875,119 41.625,118.25 41.125,109.375 39.875,104.875 37.25,103.75 34.5,102 c -2.75,-1.75 -3.125,-6.625 -4.125,-7.875 -1,-1.25 -5,-1.25 -7.125,-8.75 -2.125,-7.5 -2.5,-3.125 -0.375,-10.125 0,0 -3.125,-12 -5,-14.75 C 16,57.75 13,50.125 12.125,46.625 11.25,43.125 7.375,38.125 4.5,37.625 1.625,37.125 -1.625,26.625 -2,23.75 -2.375,20.875 -3.5,5.5 -2,3.25 -1.125,1 0,0 0,0 Z" /></g><g
           transform="translate(320,664.5)"
           id="g50"><path
             id="path52"
             style="fill:#ffa500;fill-opacity:1;fill-rule:nonzero;stroke:none"
             d="M 0,0 H 51.875 178.833 V -372.5 H 100.5 61.625 60.688 c 0,0 -1,0.75 -1.875,3.125 -0.875,2.375 -11.313,6.5 -14.438,7.313 -3.125,0.812 -9.312,11 -11.437,13.187 -1.376,2 -1.501,3.563 -1.501,3.563 l -1.187,20.25 c 0,0 -0.188,1.5 0.75,2.562 0.937,1.063 2.625,3.75 2.438,5.938 -0.188,2.187 -1,11.062 -1.501,12.187 -0.5,1.125 -0.312,3 -0.375,4 -0.062,1 1.188,3.938 1.501,5 0.312,1.063 3.187,23.188 2.937,24.625 -0.25,1.438 -0.125,12.75 -2,13.938 -1.875,1.187 -0.375,6.437 -1,7.312 -0.625,0.875 -2.875,-0.312 -3.688,2.625 -0.812,2.938 -9.375,23.063 -9.375,23.063 l -5.687,11.75 c 0,0 -15.375,22.062 -17.188,23.75 -1.812,1.687 -2.249,12.25 -0.625,14.937 1.626,2.688 2.438,-0.437 2.626,-0.437 0.187,0 4.375,-2.688 6.187,-0.813 1.812,1.875 6.563,9.25 6.625,12.063 0.063,2.812 1.375,30.687 0.5,32 -0.312,1.312 -1.062,5.999 -6.063,7.749 -5,1.75 0.125,3.625 0,6.25 -0.125,2.625 -0.875,4.5 0.938,3.25 1.813,-1.25 22.312,-12.625 25,-13 2.688,-0.375 3.188,-0.437 5.063,-0.437 1.875,0 4.062,-2.312 4.875,-2 0.875,0 4,-0.125 10.75,5.5 6.75,5.625 7.875,5 9.5,10.75 1.625,5.75 1.125,13.937 4.687,14.812 3.563,0.875 6.625,-2.312 2.938,9.438 -1.75,11.312 -1.313,11.812 0.312,11.937 1.438,0.75 1,0.563 4.25,4.188 3.25,3.625 3.313,3.812 3.5,4.187 0.188,0.375 0.188,1.625 0.188,1.625 0,0 1,0.625 1.312,0.875 0.313,0.25 1.875,0.75 2.188,0.75 0.312,0 -0.5,0.875 1,0.938 5.625,0 33.687,-0.188 33.687,-0.188 v 3.188 c 0,0 0.063,1.062 0.75,1 0.688,-0.063 1.25,-0.125 1.5,-0.438 0.25,-0.312 7,-0.187 7,-0.187 0,0 1.188,1.062 3.312,1.062 2.125,0 20.875,-0.062 20.875,-0.062 0,0 0.438,-1.75 1.375,-1.75 0.938,0 2.5,-0.25 2.438,0.75 3.125,0 11.25,0.062 11.25,0.062 0,0 0.437,0 0.375,2.688 0.062,2.312 0.125,1.937 -7.813,1.937 -2.875,0 -3.437,0.063 -3.437,0.063 0,0 0.437,1 -1.375,1 -1.813,0 -2.688,-0.938 -2.688,-1.5 0,-0.563 -0.812,-0.5 -0.812,-0.5 L 128,-56.438 c 0,0 -1.062,0.125 -0.687,3.25 0.375,3.125 -0.875,4.375 -1.875,3.688 -1,-0.688 -1.75,-1 -1.875,-1.188 -0.125,-0.187 -1.125,1 -1.25,2.063 -0.125,1.062 -0.188,11.187 -0.188,11.375 0,0.187 -0.562,1.687 -1.25,1.25 -0.687,-0.438 -1.875,0.187 -2.062,-0.563 -0.188,-0.75 -0.063,-14.625 -0.063,-14.625 0,0 -1.125,-0.875 -1.75,0.125 -0.625,1 -1.25,0.438 -1.125,1.625 0.125,1.188 -0.75,2.063 -0.75,2.063 h -80.75 c 0,0 -0.25,3.875 -0.875,3.625 -0.625,-0.25 -4.875,-0.375 -4.875,-0.375 L 28.5,-37.75 c 0,0 -0.375,1.875 -1.75,0.75 -1.25,-0.125 -1.125,-5.625 -1.25,-6.25 -0.125,-0.625 -1.125,-0.625 -1.125,-0.625 v -2.25 l -4.5,-0.5 c 0,0 -6.125,-1.125 -7,-1.75 C 12,-49 8.75,-49.25 8.75,-49.25 l -1.5,-0.25 c 0,0 -1,2.75 -1,3.125 0,0.375 -0.125,3 -0.125,3 0,0 0.25,-1 -0.25,0.75 -0.5,1.75 -0.25,3.25 -0.25,3.25 0,0 7.875,2.875 9.25,5.375 1.375,2.5 1.375,12 0.125,15.875 -1.25,3.875 -2,5 -2,6 0,1 -0.375,4.25 -0.375,4.25 0,0 -4.875,2.5 -7.25,3.25 C 3,-3.875 -0.5,-1.25 -0.5,-1.25 Z" /></g><g
           transform="translate(320,664.5)"
           id="g54"><path
             id="path56"
             style="fill:none;stroke:#ffa500;stroke-width:1;stroke-linecap:butt;stroke-linejoin:miter;stroke-miterlimit:10;stroke-dasharray:none;stroke-opacity:1"
             d="M 0,0 H 51.875 178.833 V -372.5 H 100.5 61.625 60.688 c 0,0 -1,0.75 -1.875,3.125 -0.875,2.375 -11.313,6.5 -14.438,7.313 -3.125,0.812 -9.312,11 -11.437,13.187 -1.376,2 -1.501,3.563 -1.501,3.563 l -1.187,20.25 c 0,0 -0.188,1.5 0.75,2.562 0.937,1.063 2.625,3.75 2.438,5.938 -0.188,2.187 -1,11.062 -1.501,12.187 -0.5,1.125 -0.312,3 -0.375,4 -0.062,1 1.188,3.938 1.501,5 0.312,1.063 3.187,23.188 2.937,24.625 -0.25,1.438 -0.125,12.75 -2,13.938 -1.875,1.187 -0.375,6.437 -1,7.312 -0.625,0.875 -2.875,-0.312 -3.688,2.625 -0.812,2.938 -9.375,23.063 -9.375,23.063 l -5.687,11.75 c 0,0 -15.375,22.062 -17.188,23.75 -1.812,1.687 -2.249,12.25 -0.625,14.937 1.626,2.688 2.438,-0.437 2.626,-0.437 0.187,0 4.375,-2.688 6.187,-0.813 1.812,1.875 6.563,9.25 6.625,12.063 0.063,2.812 1.375,30.687 0.5,32 -0.312,1.312 -1.062,5.999 -6.063,7.749 -5,1.75 0.125,3.625 0,6.25 -0.125,2.625 -0.875,4.5 0.938,3.25 1.813,-1.25 22.312,-12.625 25,-13 2.688,-0.375 3.188,-0.437 5.063,-0.437 1.875,0 4.062,-2.312 4.875,-2 0.875,0 4,-0.125 10.75,5.5 6.75,5.625 7.875,5 9.5,10.75 1.625,5.75 1.125,13.937 4.687,14.812 3.563,0.875 6.625,-2.312 2.938,9.438 -1.75,11.312 -1.313,11.812 0.312,11.937 1.438,0.75 1,0.563 4.25,4.188 3.25,3.625 3.313,3.812 3.5,4.187 0.188,0.375 0.188,1.625 0.188,1.625 0,0 1,0.625 1.312,0.875 0.313,0.25 1.875,0.75 2.188,0.75 0.312,0 -0.5,0.875 1,0.938 5.625,0 33.687,-0.188 33.687,-0.188 v 3.188 c 0,0 0.063,1.062 0.75,1 0.688,-0.063 1.25,-0.125 1.5,-0.438 0.25,-0.312 7,-0.187 7,-0.187 0,0 1.188,1.062 3.312,1.062 2.125,0 20.875,-0.062 20.875,-0.062 0,0 0.438,-1.75 1.375,-1.75 0.938,0 2.5,-0.25 2.438,0.75 3.125,0 11.25,0.062 11.25,0.062 0,0 0.437,0 0.375,2.688 0.062,2.312 0.125,1.937 -7.813,1.937 -2.875,0 -3.437,0.063 -3.437,0.063 0,0 0.437,1 -1.375,1 -1.813,0 -2.688,-0.938 -2.688,-1.5 0,-0.563 -0.812,-0.5 -0.812,-0.5 L 128,-56.438 c 0,0 -1.062,0.125 -0.687,3.25 0.375,3.125 -0.875,4.375 -1.875,3.688 -1,-0.688 -1.75,-1 -1.875,-1.188 -0.125,-0.187 -1.125,1 -1.25,2.063 -0.125,1.062 -0.188,11.187 -0.188,11.375 0,0.187 -0.562,1.687 -1.25,1.25 -0.687,-0.438 -1.875,0.187 -2.062,-0.563 -0.188,-0.75 -0.063,-14.625 -0.063,-14.625 0,0 -1.125,-0.875 -1.75,0.125 -0.625,1 -1.25,0.438 -1.125,1.625 0.125,1.188 -0.75,2.063 -0.75,2.063 h -80.75 c 0,0 -0.25,3.875 -0.875,3.625 -0.625,-0.25 -4.875,-0.375 -4.875,-0.375 L 28.5,-37.75 c 0,0 -0.375,1.875 -1.75,0.75 -1.25,-0.125 -1.125,-5.625 -1.25,-6.25 -0.125,-0.625 -1.125,-0.625 -1.125,-0.625 v -2.25 l -4.5,-0.5 c 0,0 -6.125,-1.125 -7,-1.75 C 12,-49 8.75,-49.25 8.75,-49.25 l -1.5,-0.25 c 0,0 -1,2.75 -1,3.125 0,0.375 -0.125,3 -0.125,3 0,0 0.25,-1 -0.25,0.75 -0.5,1.75 -0.25,3.25 -0.25,3.25 0,0 7.875,2.875 9.25,5.375 1.375,2.5 1.375,12 0.125,15.875 -1.25,3.875 -2,5 -2,6 0,1 -0.375,4.25 -0.375,4.25 0,0 -4.875,2.5 -7.25,3.25 C 3,-3.875 -0.5,-1.25 -0.5,-1.25 Z" /></g><g
           transform="translate(169.5,181.25)"
           id="g58"><path
             id="path60"
             style="fill:#ffffff;fill-opacity:1;fill-rule:nonzero;stroke:none"
             d="M 0,0 H -66.75 V 45.5 H 0 c 0,0 -0.5,13.125 -13.125,17 -2.625,0.625 -7.75,0.625 -11,0.625 H -71.75 c 0,0 -16.5,-1.375 -16.75,-18.125 -0.25,-16.75 0,-45 0,-45 0,0 -1.875,-18.75 26.375,-18.75 h 43.5 c 0,0 12.75,0.5 18,12.875 C 0.375,-2.5 0,0 0,0" /></g><g
           transform="translate(169.5,181.25)"
           id="g62"><path
             id="path64"
             style="fill:none;stroke:#000000;stroke-width:1;stroke-linecap:butt;stroke-linejoin:miter;stroke-miterlimit:10;stroke-dasharray:none;stroke-opacity:1"
             d="M 0,0 H -66.75 V 45.5 H 0 c 0,0 -0.5,13.125 -13.125,17 -2.625,0.625 -7.75,0.625 -11,0.625 H -71.75 c 0,0 -16.5,-1.375 -16.75,-18.125 -0.25,-16.75 0,-45 0,-45 0,0 -1.875,-18.75 26.375,-18.75 h 43.5 c 0,0 12.75,0.5 18,12.875 C 0.375,-2.5 0,0 0,0 Z" /></g><g
           transform="translate(203,162.5)"
           id="g66"><path
             id="path68"
             style="fill:#ffffff;fill-opacity:1;fill-rule:nonzero;stroke:#000000;stroke-width:1;stroke-linecap:butt;stroke-linejoin:miter;stroke-miterlimit:10;stroke-dasharray:none;stroke-opacity:1"
             d="m 0,0 h 54.833 c 0,0 18.5,1.332 18.667,18.499 C 74.125,40.125 73.375,51 45.333,49.999 12.875,50 7.167,50 7.167,50 H 2.5 v 14.833 h 69.667 c 0,0 -1,17.084 -19.167,17.042 -18.167,-0.042 -53,0 -53,0 0,0 -17.833,-0.542 -17.833,-17.042 v -16.5 c 0,0 -1.834,-16.168 24.666,-16.334 26.5,-0.166 46.834,0.167 46.834,0.167 V 17.833 l -71.527,0.333 c 0,0 1.36,-10.667 8.36,-14.5 C -6.833,1.999 -1.5,0 -1.5,0" /></g><path
           id="path70"
           style="fill:#ffffff;fill-opacity:1;fill-rule:nonzero;stroke:#000000;stroke-width:1;stroke-linecap:butt;stroke-linejoin:miter;stroke-miterlimit:10;stroke-dasharray:none;stroke-opacity:1"
           d="M 290.875,224.875 H 304 v -13.5 h -13.125 z" /><path
           id="path72"
           style="fill:#ffffff;fill-opacity:1;fill-rule:nonzero;stroke:#000000;stroke-width:1;stroke-linecap:butt;stroke-linejoin:miter;stroke-miterlimit:10;stroke-dasharray:none;stroke-opacity:1"
           d="M 290.875,196.875 H 304 v -14.25 h -13.125 z" /><g
           transform="translate(409,228)"
           id="g74"><path
             id="path76"
             style="fill:#ffffff;fill-opacity:1;fill-rule:nonzero;stroke:none"
             d="m 0,0 h -73.875 v -49.25 h 56.25 l -0.125,17.375 -27.625,0.125 c 0,0 -8.875,1.5 -12.375,8 -2.375,6 -4.125,5.875 1,5.875 5.125,0 56.75,-0.375 56.75,-0.375 v -30.125 c 0,0 0.375,-17 -18.375,-17.125 -18.75,-0.125 -52.375,0 -52.375,0 l -5.75,-0.056 c 0,0 -12,2.056 -14.875,13.681 V 0 c 0,0 1,16.125 17.25,16.375 16.25,0.25 58.25,0 58.25,0 0,0 8,-1.625 11.5,-5.875 C -1.875,6 0.002,3.75 0.001,2.375 0,1 0,0 0,0" /></g><g
           transform="translate(409,228)"
           id="g78"><path
             id="path80"
             style="fill:none;stroke:#000000;stroke-width:1;stroke-linecap:butt;stroke-linejoin:miter;stroke-miterlimit:10;stroke-dasharray:none;stroke-opacity:1"
             d="m 0,0 h -73.875 v -49.25 h 56.25 l -0.125,17.375 -27.625,0.125 c 0,0 -8.875,1.5 -12.375,8 -2.375,6 -4.125,5.875 1,5.875 5.125,0 56.75,-0.375 56.75,-0.375 v -30.125 c 0,0 0.375,-17 -18.375,-17.125 -18.75,-0.125 -52.375,0 -52.375,0 l -5.75,-0.056 c 0,0 -12,2.056 -14.875,13.681 V 0 c 0,0 1,16.125 17.25,16.375 16.25,0.25 58.25,0 58.25,0 0,0 8,-1.625 11.5,-5.875 C -1.875,6 0.002,3.75 0.001,2.375 0,1 0,0 0,0 Z" /></g><g
           transform="translate(445.334,244.4863)"
           id="g82"><path
             id="path84"
             style="fill:#ffffff;fill-opacity:1;fill-rule:nonzero;stroke:none"
             d="m 0,0 h 48.5 c 0,0 19.666,1.015 19.833,-18.819 0.167,-19.834 0,-41.167 0,-41.167 0,0 2.833,-22.112 -24.5,-22.056 -27.333,0.056 -39.833,0 -39.833,0 0,0 -24.499,-2.443 -24.333,20.223 0.166,22.666 -0.001,44.5 -0.001,44.5 0,0 1.5,8.499 5.167,11.666 3.667,3.167 6.667,4.668 8.167,4.834 1.862,0.644 3.333,0.828 3.333,0.828 z" /></g><g
           transform="translate(445.334,244.4863)"
           id="g86"><path
             id="path88"
             style="fill:none;stroke:#000000;stroke-width:1;stroke-linecap:butt;stroke-linejoin:miter;stroke-miterlimit:10;stroke-dasharray:none;stroke-opacity:1"
             d="m 0,0 h 48.5 c 0,0 19.666,1.015 19.833,-18.819 0.167,-19.834 0,-41.167 0,-41.167 0,0 2.833,-22.112 -24.5,-22.056 -27.333,0.056 -39.833,0 -39.833,0 0,0 -24.499,-2.443 -24.333,20.223 0.166,22.666 -0.001,44.5 -0.001,44.5 0,0 1.5,8.499 5.167,11.666 3.667,3.167 6.667,4.668 8.167,4.834 1.862,0.644 3.333,0.828 3.333,0.828 z" /></g><path
           id="path90"
           style="fill:#000000;fill-opacity:1;fill-rule:nonzero;stroke:#000000;stroke-width:1;stroke-linecap:butt;stroke-linejoin:miter;stroke-miterlimit:10;stroke-dasharray:none;stroke-opacity:1"
           d="m 443.001,229.333 h 53.666 v -51 h -53.666 z" /></g></g></g></svg>