<?xml version="1.0" encoding="UTF-8"?>
<svg xmlns="http://www.w3.org/2000/svg" xmlns:xlink="http://www.w3.org/1999/xlink" width="48px" height="48px" viewBox="0 0 48 48" version="1.1">
<g id="surface161679">
<path style=" stroke:none;fill-rule:evenodd;fill:rgb(95.686275%,26.27451%,21.176471%);fill-opacity:1;" d="M 12.300781 27 L 20 35.332031 L 12.851562 37 L 9 33.667969 Z M 32.621094 11 L 36 12.855469 L 34.875 19 L 26.992188 13.855469 Z M 11.625 11 C 12 11 12.300781 11.015625 12.75 11.375 C 13.375 11.875 15.679688 13.507812 15.679688 13.507812 L 16.097656 14.25 C 16.859375 14.289062 16.878906 14.355469 17.839844 15.0625 L 39 29.417969 C 38.835938 29.769531 36.320312 37 36.320312 37 L 32.4375 37 L 9 12.25 C 9 12.25 9.382812 12.105469 9.75 11.875 C 10.328125 11.511719 11.054688 11 11.625 11 Z M 14.5 6 L 6 6 C 5.472656 6.265625 5 6.570312 5 7.625 L 5 16.625 L 5.988281 19.371094 L 5 20.75 L 5 21.875 L 6 22.625 L 6 24 L 5 25 L 5 28.75 L 6 29.375 L 6 33.5 C 4.957031 34.242188 5 35.125 5 36.140625 L 5 40.875 C 7.339844 41.460938 6.949219 42 9.625 42 C 11.988281 42 13.5 42 13.5 42 C 13.863281 41.976562 14.144531 41.902344 14.5 41.867188 C 15.492188 41.769531 16.125 41 16.125 41 L 18.75 42 L 19.75 41 C 19.75 41 21.0625 42.621094 21.375 43 L 22.25 42 L 25 43 C 25 43 26.019531 42.019531 27.125 42 L 32.5 42 C 32.582031 41.921875 33.5 41 33.5 41 C 33.921875 41.253906 33.550781 42 37.375 42 C 38.429688 42 39.375 41.75 39.375 41.75 C 39.214844 41.210938 39.195312 41.320312 38.875 41 C 38.875 41 41.375 41 43 42 L 43 26.507812 L 41 27.125 C 41.039062 26.808594 41.964844 26.386719 42 25.75 C 42.046875 24.945312 41.957031 22.164062 41.839844 21.574219 C 41.777344 21.277344 41.207031 20.398438 41 20.125 C 41.246094 19.464844 42 19 42 19 L 42 18.25 L 43 17.667969 L 43 13.445312 L 42 9.25 L 43 8.167969 L 43 6.972656 L 41.945312 6.054688 L 38.515625 5.488281 L 37.722656 6.054688 L 37.324219 5.394531 C 37.324219 5.394531 32.140625 5.003906 31.203125 5.003906 C 30 5.003906 30.175781 5.09375 29.765625 6.445312 L 28.039062 6.621094 L 27.875 6 L 26.125 6 L 26.414062 5.683594 C 26.71875 5.394531 26.613281 5.511719 26.851562 5 L 20.832031 5 C 20.738281 5.171875 20.394531 5.5625 20.125 6 C 20.125 6 19.597656 5.996094 19.199219 6.257812 C 18.804688 6.523438 18.804688 7 18.277344 7 C 17.75 7 16.65625 7 16.035156 7 C 14.714844 7 14.5 6 14.5 6 Z M 14.5 6 "/>
</g>
</svg>
