<?xml version="1.0" encoding="UTF-8"?>
<svg xmlns="http://www.w3.org/2000/svg" xmlns:xlink="http://www.w3.org/1999/xlink" width="96px" height="96px" viewBox="0 0 96 96" version="1.1">
<g id="surface162028">
<path style=" stroke:none;fill-rule:nonzero;fill:rgb(48.235294%,12.156863%,63.529412%);fill-opacity:1;" d="M 12 20 C 12 15.582031 15.582031 12 20 12 L 76 12 C 80.417969 12 84 15.582031 84 20 L 84 76 C 84 80.417969 80.417969 84 76 84 L 20 84 C 15.582031 84 12 80.417969 12 76 Z M 12 20 "/>
<path style=" stroke:none;fill-rule:nonzero;fill:rgb(100%,100%,100%);fill-opacity:1;" d="M 72 38 L 74 26 L 61.679688 26 L 62.878906 20 L 34 20 L 34 26 L 22 26 L 24 40 L 22 70 L 34 66.398438 L 34 76.878906 L 52 73.28125 L 52 64.667969 L 73.933594 66.136719 Z M 72 38 "/>
<path style=" stroke:none;fill-rule:nonzero;fill:rgb(48.235294%,12.156863%,63.529412%);fill-opacity:1;" d="M 38 24 L 38 72 L 48 70 L 48 52 L 56 52 L 56 42 L 48 42 L 48 34 L 56 34 L 58 24 Z M 38 24 "/>
</g>
</svg>
