<?xml version="1.0" encoding="UTF-8"?>
<svg xmlns="http://www.w3.org/2000/svg" xmlns:xlink="http://www.w3.org/1999/xlink" width="48px" height="48px" viewBox="0 0 48 48" version="1.1">
<g id="surface160529">
<path style=" stroke:none;fill-rule:nonzero;fill:rgb(86.666667%,62.352941%,1.960784%);fill-opacity:1;" d="M 24 7 C 13.507812 7 5 15.507812 5 26 C 5 36.492188 13.507812 45 24 45 C 34.492188 45 43 36.492188 43 26 C 43 15.507812 34.492188 7 24 7 Z M 24 7 "/>
<path style=" stroke:none;fill-rule:nonzero;fill:rgb(0.392157%,34.117647%,60.784314%);fill-opacity:1;" d="M 24 9 C 14.609375 9 7 16.609375 7 26 C 7 35.390625 14.609375 43 24 43 C 33.390625 43 41 35.390625 41 26 C 41 16.609375 33.390625 9 24 9 Z M 24 9 "/>
<path style=" stroke:none;fill-rule:nonzero;fill:rgb(0.784314%,46.666667%,74.117647%);fill-opacity:1;" d="M 34 32 C 34.917969 34.917969 31.832031 37.046875 29.417969 37.046875 C 28.09375 37.046875 26.460938 36.539062 26 35 C 24.296875 35.90625 22.835938 36.910156 22 37.519531 L 22 39 L 34.914062 39 C 36.914062 37.320312 38.527344 35.207031 39.585938 32.78125 C 38.730469 32.460938 36.988281 32 34 32 Z M 36.5625 14.570312 C 32.605469 15.734375 29.792969 17.847656 28.511719 18.957031 C 27.628906 21.632812 25.515625 24.582031 22 27 L 22 34 C 22 34 24.796875 28.890625 31.417969 27.332031 C 35.734375 26.316406 39.460938 26.027344 40.996094 25.945312 C 40.984375 21.5625 39.304688 17.574219 36.5625 14.570312 Z M 36.5625 14.570312 "/>
<path style=" stroke:none;fill-rule:nonzero;fill:rgb(0%,56.862745%,91.764706%);fill-opacity:1;" d="M 34.917969 12.992188 C 33.96875 12.195312 32.9375 11.496094 31.828125 10.921875 C 30.71875 11.433594 29.324219 12.144531 28 13 C 28.628906 13.785156 28.957031 14.839844 28.984375 16.039062 C 30.433594 15.015625 32.4375 13.851562 34.917969 12.992188 Z M 34.917969 12.992188 "/>
<path style=" stroke:none;fill-rule:nonzero;fill:rgb(0.784314%,46.666667%,74.117647%);fill-opacity:1;" d="M 24 11 C 15.714844 11 9 17.714844 9 26 C 9 34.285156 15.714844 41 24 41 C 32.285156 41 39 34.285156 39 26 C 39 17.714844 32.285156 11 24 11 Z M 24 11 "/>
<path style=" stroke:none;fill-rule:nonzero;fill:rgb(0%,69.019608%,100%);fill-opacity:1;" d="M 29.558594 12.074219 C 29.039062 12.363281 28.515625 12.664062 28 13 C 28.628906 13.785156 28.957031 14.839844 28.984375 16.039062 C 29.988281 15.332031 31.277344 14.558594 32.789062 13.863281 C 31.796875 13.140625 30.714844 12.539062 29.558594 12.074219 Z M 29.558594 12.074219 "/>
<path style=" stroke:none;fill-rule:nonzero;fill:rgb(0%,56.862745%,91.764706%);fill-opacity:1;" d="M 39 26 C 39 21.808594 37.277344 18.027344 34.507812 15.304688 C 31.632812 16.484375 29.554688 18.050781 28.511719 18.957031 C 27.628906 21.632812 25.515625 24.582031 22 27 L 22 34 C 22 34 24.796875 28.890625 31.417969 27.332031 C 34.410156 26.628906 37.101562 26.277344 38.996094 26.097656 C 38.996094 26.066406 39 26.035156 39 26 Z M 39 26 "/>
<path style=" stroke:none;fill-rule:nonzero;fill:rgb(70.196078%,51.372549%,11.372549%);fill-opacity:1;" d="M 39.472656 37 L 33 37 L 33 39 L 37.828125 39 C 38.421875 38.371094 38.972656 37.703125 39.472656 37 Z M 22 7.105469 L 22 44.894531 C 22.65625 44.960938 23.324219 45 24 45 L 24 7 C 23.324219 7 22.65625 7.039062 22 7.105469 Z M 11 39.828125 C 11.628906 40.421875 12.296875 40.972656 13 41.472656 L 13 10.527344 C 12.296875 11.027344 11.628906 11.578125 11 12.171875 Z M 11 39.828125 "/>
<path style=" stroke:none;fill-rule:nonzero;fill:rgb(0.392157%,34.117647%,60.784314%);fill-opacity:1;" d="M 11 36.941406 C 11.609375 37.664062 12.28125 38.335938 13 38.949219 L 13 13.050781 C 12.28125 13.664062 11.609375 14.332031 11 15.054688 Z M 11 36.941406 "/>
<path style=" stroke:none;fill-rule:nonzero;fill:rgb(100%,75.686275%,2.745098%);fill-opacity:1;" d="M 10 3 L 22 3 L 22 39 L 42 39 L 37 45 L 10 45 L 13 41 L 13 7 Z M 10 3 "/>
<path style=" stroke:none;fill-rule:nonzero;fill:rgb(0.392157%,34.117647%,60.784314%);fill-opacity:1;" d="M 24 37 L 24 9 C 23.320312 9 22.65625 9.050781 22 9.128906 L 22 39 L 34.941406 39 C 35.664062 38.390625 36.335938 37.71875 36.949219 37 Z M 24 37 "/>
<path style=" stroke:none;fill-rule:nonzero;fill:rgb(0.784314%,46.666667%,74.117647%);fill-opacity:1;" d="M 24 25.394531 C 23.417969 25.9375 22.761719 26.476562 22 27 L 22 34 C 22 34 22.636719 32.851562 24 31.480469 Z M 24 25.394531 "/>
<path style=" stroke:none;fill-rule:nonzero;fill:rgb(90.980392%,63.921569%,3.921569%);fill-opacity:1;" d="M 22 39 L 22 3 L 20 3 L 20 41 L 40.332031 41 L 42 39 Z M 22 39 "/>
<path style=" stroke:none;fill-rule:nonzero;fill:rgb(0%,56.862745%,91.764706%);fill-opacity:1;" d="M 34 32 C 34.917969 34.917969 31.832031 37.046875 29.417969 37.046875 C 28.09375 37.046875 26.460938 36.539062 26 35 C 24.296875 35.90625 22.835938 36.910156 22 37.519531 L 22 39 L 31.460938 39 C 34.148438 37.453125 36.304688 35.105469 37.613281 32.273438 C 36.691406 32.117188 35.503906 32 34 32 Z M 34 32 "/>
<path style=" stroke:none;fill-rule:nonzero;fill:rgb(0.784314%,46.666667%,74.117647%);fill-opacity:1;" d="M 36.347656 37.648438 C 36.546875 37.445312 36.714844 37.214844 36.898438 37 L 30.011719 37 C 29.808594 37.027344 29.609375 37.046875 29.417969 37.046875 C 29.207031 37.046875 28.992188 37.027344 28.773438 37 L 24 37 L 24 36.164062 C 23.175781 36.683594 22.480469 37.167969 22 37.519531 L 22 39 L 34.914062 39 C 35.410156 38.582031 35.886719 38.136719 36.332031 37.667969 C 36.339844 37.660156 36.34375 37.65625 36.347656 37.648438 Z M 36.347656 37.648438 "/>
</g>
</svg>
